<?xml version="1.0" encoding="utf-8"?>
<!-- Generator: Adobe Illustrator 25.0.1, SVG Export Plug-In . SVG Version: 6.00 Build 0)  -->
<svg version="1.1" xmlns="http://www.w3.org/2000/svg" xmlns:xlink="http://www.w3.org/1999/xlink" x="0px" y="0px"
	 viewBox="0 0 1000 1000" style="enable-background:new 0 0 1000 1000;" xml:space="preserve">
<style type="text/css">
	.st0{fill:#A51B1D;}
	.st1{fill:none;stroke:#FFFFFF;stroke-width:20;stroke-miterlimit:10;}
	.st2{fill:#FFFFFF;}
</style>
<g id="Layer_1">
	<circle class="st0" cx="499.5" cy="500.5" r="491"/>
	<circle class="st1" cx="499.5" cy="501.5" r="431.5"/>
</g>
<g id="Layer_2">
	<path class="st2" d="M474.5,711.9L424,661.4l323.7-323.7l13.8-81.3l-82.9,12.2L354.9,592.3l-47.4-47.4c-10.1-10.1-20.5-10.1-30.6,0
		l-12.3,12.3c-10.1,10.1-10.1,20.5,0,30.6l55.2,55.2l-90.5,90.5c-10.1,10.1-10.1,20.5,0,30.6l23,23c10.1,10.1,20.5,10.1,30.6,0
		l90.5-90.5l58.3,58.3c10.1,10.1,20.5,10.1,30.6,0l12.3-12.3C484.6,732.4,484.6,722,474.5,711.9z M674.8,322.8l28.6-9.4l-10,27.9
		L398.7,636l-18.6-18.6L674.8,322.8z"/>
</g>
</svg>
