<?xml version="1.0" encoding="utf-8"?>
<!-- Generator: Adobe Illustrator 25.0.1, SVG Export Plug-In . SVG Version: 6.00 Build 0)  -->
<svg version="1.1" xmlns="http://www.w3.org/2000/svg" xmlns:xlink="http://www.w3.org/1999/xlink" x="0px" y="0px"
	 viewBox="0 0 1000 1000" style="enable-background:new 0 0 1000 1000;" xml:space="preserve">
<style type="text/css">
	.st0{fill:url(#SVGID_1_);}
	.st1{fill:none;stroke:#FFFFFF;stroke-width:20;stroke-miterlimit:10;}
	.st2{fill:#FFFFFF;}
</style>
<g id="Layer_1">
	<linearGradient id="SVGID_1_" gradientUnits="userSpaceOnUse" x1="499.5" y1="991.5" x2="499.5" y2="9.5">
		<stop  offset="0" style="stop-color:#A51B1D"/>
		<stop  offset="0.5077" style="stop-color:#193E7F"/>
		<stop  offset="1" style="stop-color:#006F28"/>
	</linearGradient>
	<circle class="st0" cx="499.5" cy="500.5" r="491"/>
	<circle class="st1" cx="499.5" cy="500.5" r="431.5"/>
</g>
<g id="Layer_2">
	<path class="st2" d="M497,307.6c-18.1,18.1-85.8,78.7-203.6,78.7C293.4,629.7,497,739,497,739s203.6-79.5,203.6-352.6
		C591.4,386.4,516.5,327.1,497,307.6z M634.6,551.5c-13.2,31.8-31.7,60.3-54.8,84.9c-39.5,41.9-78.6,57.5-80.3,58.1l-3.1,1.2
		l-2.9-1.5c-1.6-0.9-40.4-22-79.6-66.5c-23-26.1-41.4-55-54.6-85.7c-16.5-38.4-24.9-79.9-24.9-123.2v-7.1h7.1
		c83.3,0,132.9-40.6,150.3-58l5-5l5,5c3.1,3.1,20.2,19.5,50.1,34.3c31.8,15.7,65.5,23.7,100.2,23.7h7.1v7.1
		C659.5,467.3,651.1,511.9,634.6,551.5z"/>
	<path class="st2" d="M545.9,400.7c-21-10.4-38.1-22.7-48.8-32.2c-21.5,19.8-70.6,55.2-148.2,57.3c2,89.8,41.9,153.8,75.5,192.1
		c31.6,35.9,63.5,56.4,73.2,62.1c9.7-4.5,41.3-20.5,72.5-53.8c33.6-35.8,73.4-99.4,75.2-200.4C610.8,424.8,577.4,416.3,545.9,400.7z
		 M521.6,538.1v63.2h-44.8v-63.2h-63.2v-44.8h63.2v-63.2h44.8v63.2h63.2v44.8H521.6z"/>
	<g>
		<polygon class="st2" points="673.1,385.1 673.1,385.1 673.1,385.1 		"/>
		<path class="st2" d="M649.7,382C649.6,382,649.6,382,649.7,382C649.6,382,649.6,382,649.7,382z"/>
		<polygon class="st2" points="560.9,352.1 560.9,352.1 560.9,352.1 		"/>
		<path class="st2" d="M569.5,356.4C569.5,356.4,569.4,356.4,569.5,356.4C569.4,356.4,569.5,356.4,569.5,356.4z"/>
		<polygon class="st2" points="627.6,377.3 627.6,377.3 627.6,377.3 		"/>
		<path class="st2" d="M588.1,364.6c-0.2-0.1-0.4-0.2-0.6-0.2C587.7,364.4,587.9,364.5,588.1,364.6z"/>
		<path class="st2" d="M675.6,237.5L568.3,344.7c0.4,0.2,0.8,0.4,1.3,0.6c11.8,5.8,23.8,10.9,35.9,15.1l66.1-66.1l30-9.8l-10.5,29.3
			l-55.3,55.3c15.3,3.5,30.8,5.7,46.6,6.7l65.8-65.8l14.5-85.4L675.6,237.5z"/>
		<path class="st2" d="M583.2,362.5c0,0-0.1,0-0.1-0.1C583.1,362.5,583.1,362.5,583.2,362.5z"/>
		<path class="st2" d="M574,358.5c-0.1-0.1-0.2-0.1-0.3-0.2C573.8,358.4,573.9,358.5,574,358.5z"/>
	</g>
	<g>
		<path class="st2" d="M387.3,644.8c2,2.4,4,4.8,6.1,7.1C391.4,649.5,389.4,647.2,387.3,644.8z"/>
		<path class="st2" d="M393.4,651.9c0.9,1.1,1.9,2.2,2.8,3.2C395.3,654.1,394.4,653,393.4,651.9z"/>
		<path class="st2" d="M399.5,658.7c-1-1.1-1.9-2.1-2.9-3.2C397.6,656.6,398.5,657.6,399.5,658.7L399.5,658.7z"/>
		<path class="st2" d="M375.3,629.6c3,3.9,6,7.7,9,11.4C381.3,637.3,378.3,633.5,375.3,629.6z"/>
		<path class="st2" d="M384.4,641.1c1,1.2,2,2.4,3,3.6C386.3,643.5,385.3,642.3,384.4,641.1z"/>
		<path class="st2" d="M339.4,573.7c0.8,1.5,1.5,2.9,2.3,4.3C340.9,576.5,340.2,575.1,339.4,573.7z"/>
		<path class="st2" d="M366.7,691.4l25.7-25.7c-1.6-1.7-3.1-3.5-4.7-5.2c-6.8-7.8-13.3-15.7-19.5-23.8l-28.1,28.1l-19.5-19.5
			l31.3-31.3c-7.2-10.8-13.8-21.8-19.9-33l-37.8,37.8L244.3,569c-10.6-10.6-21.5-10.6-32.1,0l-12.9,12.9
			c-10.6,10.6-10.6,21.5,0,32.1l58,58l-53.6,53.6c-10.6,10.6-10.6,21.5,0,32.1l24.1,24.1c10.6,10.6,21.5,10.6,32.1,0l53.6-53.6
			l61.2,61.2c10.6,10.6,21.5,10.6,32.1,0l12.9-12.9c10.6-10.6,10.6-21.5,0-32.1L366.7,691.4z"/>
		<path class="st2" d="M356.6,602.9c0.8,1.3,1.7,2.6,2.6,3.9C358.2,605.5,357.4,604.2,356.6,602.9z"/>
		<path class="st2" d="M341.7,578c4.7,8.6,9.7,16.9,14.8,24.8C351.4,594.9,346.5,586.7,341.7,578z"/>
	</g>
	<g>
		<path class="st2" d="M609.4,653.3c0.8-0.9,1.6-1.9,2.4-2.8C611,651.5,610.2,652.4,609.4,653.3z"/>
		<path class="st2" d="M602.9,660.7c2-2.2,4-4.4,6-6.7C606.9,656.3,604.9,658.5,602.9,660.7z"/>
		<path class="st2" d="M599.7,664.1c0.9-1,1.9-2,2.8-3C601.6,662.1,600.7,663.1,599.7,664.1z"/>
		<path class="st2" d="M590.1,674c1-1,2.1-2.1,3.1-3.1C592.2,671.9,591.2,673,590.1,674z"/>
		<path class="st2" d="M632.1,624L632.1,624c0.8-1.2,1.7-2.4,2.5-3.7C633.7,621.6,632.9,622.8,632.1,624z"/>
		<path class="st2" d="M612.4,649.7c1-1.1,1.9-2.3,2.9-3.5C614.3,647.5,613.4,648.6,612.4,649.7z"/>
		<path class="st2" d="M634.9,619.9c0.7-1.1,1.5-2.2,2.2-3.4C636.4,617.6,635.6,618.8,634.9,619.9z"/>
		<path class="st2" d="M720.2,675.3l61.2-61.2c10.6-10.6,10.6-21.5,0-32.1L768.5,569c-10.6-10.6-21.5-10.6-32.1,0l-53,53l-23.7-23.7
			c-6.3,11.3-13.1,22.2-20.5,32.8l17.5,17.5l-19.5,19.5l-14.8-14.8c-5.2,6.4-10.7,12.6-16.3,18.6c-3,3.1-5.9,6.2-8.9,9.1l13.6,13.6
			L561,744.5c-10.6,10.6-10.6,21.5,0,32.1l12.9,12.9c10.6,10.6,21.5,10.6,32.1,0l58-58l53.6,53.6c10.6,10.6,21.5,10.6,32.1,0
			l24.1-24.1c10.6-10.6,10.6-21.5,0-32.1L720.2,675.3z"/>
		<path class="st2" d="M639.9,612.2c4.3-6.7,8.4-13.7,12.4-21.1C648.4,598.4,644.2,605.4,639.9,612.2z"/>
		<path class="st2" d="M593.3,670.8c2.1-2.1,4.1-4.3,6.2-6.5C597.4,666.6,595.3,668.7,593.3,670.8z"/>
		<path class="st2" d="M637.5,616c0.8-1.2,1.5-2.4,2.3-3.6C639,613.6,638.2,614.8,637.5,616z"/>
	</g>
	<g>
		<path class="st2" d="M339.1,383.2c-0.1,0-0.2,0-0.3,0C338.9,383.2,339,383.2,339.1,383.2z"/>
		<path class="st2" d="M327.5,384.6c-0.2,0-0.3,0-0.5,0.1C327.2,384.6,327.3,384.6,327.5,384.6z"/>
		<polygon class="st2" points="302.4,386.2 302.4,386.2 302.4,386.2 		"/>
		<path class="st2" d="M333.5,383.9c-0.2,0-0.5,0.1-0.7,0.1C333,384,333.2,384,333.5,383.9z"/>
		<path class="st2" d="M387.4,372.3c-0.1,0-0.2,0.1-0.3,0.1C387.2,372.4,387.3,372.3,387.4,372.3z"/>
		<path class="st2" d="M407.2,365.3c0,0-0.1,0-0.1,0C407.1,365.3,407.1,365.3,407.2,365.3z"/>
		<path class="st2" d="M293.4,376.4c17.2,0,33.3-1.3,48.3-3.6l-55.5-55.5l-9.8-30l29.3,10.5l68.2,68.2c14.4-3.9,27.5-8.7,39.4-13.9
			L302,240.7l-85.4-14.5l12.8,87l63.1,63.1H293.4z"/>
		<path class="st2" d="M402.4,367.1C402.3,367.1,402.3,367.2,402.4,367.1C402.3,367.2,402.3,367.1,402.4,367.1z"/>
	</g>
</g>
</svg>
