<?xml version="1.0" encoding="utf-8"?>
<!-- Generator: Adobe Illustrator 25.0.1, SVG Export Plug-In . SVG Version: 6.00 Build 0)  -->
<svg version="1.1" xmlns="http://www.w3.org/2000/svg" xmlns:xlink="http://www.w3.org/1999/xlink" x="0px" y="0px"
	 viewBox="0 0 1000 1000" style="enable-background:new 0 0 1000 1000;" xml:space="preserve">
<style type="text/css">
	.st0{fill:#193E7F;}
	.st1{fill:none;stroke:#FFFFFF;stroke-width:20;stroke-miterlimit:10;}
	.st2{fill:#FFFFFF;}
</style>
<g id="Layer_1">
	<circle class="st0" cx="499.5" cy="500.5" r="491"/>
	<circle class="st1" cx="499.5" cy="500.5" r="431.5"/>
</g>
<g id="Layer_2">
	<path class="st2" d="M502.1,811.9c-86.1,0-159.6-30.4-220.3-91.1c-60.7-60.7-91.1-134.2-91.1-220.3c0-86.1,30.4-159.6,91.1-220.3
		C342.6,219.4,416,189,502.1,189c86.1,0,159.6,30.4,220.3,91.1c60.7,60.7,91.1,134.2,91.1,220.3c0,85.9-30.4,159.2-91.1,220.1
		C661.7,781.4,588.3,811.9,502.1,811.9z M502.1,771.3c74.7,0,138.6-26.5,191.5-79.4C746.5,639,773,575.2,773,500.4
		c0-74.7-26.5-138.6-79.4-191.5c-52.9-52.9-116.7-79.4-191.5-79.4c-74.7,0-138.6,26.5-191.5,79.4s-79.4,116.7-79.4,191.5
		c0,74.7,26.5,138.6,79.4,191.5C363.6,744.8,427.4,771.3,502.1,771.3z M281.5,513.8h-26.7v-26.7h26.7V513.8z M304.6,401.7
		l-23.1-13.3l13.3-23.1l23.1,13.3L304.6,401.7z M305,598.8l13.3,23.1l-23.1,13.3l-13.3-23.1L305,598.8z M380.2,315.8l-13.3-22.7
		l23.1-13.3l13.3,22.7L380.2,315.8z M380.6,684.3l23.1,13.3l-13.3,23.1l-23.1-13.3L380.6,684.3z M502.1,248.8l34.1,67.8h-19.6v158.8
		l69.8-40.4l-9.4-16.9l75.3-4.3l-41.6,63.1l-9.8-16.9l-84.3,48.6v35.3h-29v-18.4l-14.9,8.6l-14.5-25.1l29.4-16.9V316.6h-19.2
		L502.1,248.8z M488.8,720.3h26.7V747h-26.7V720.3z M600.9,302.5l13.3-22.7l23.1,13.3l-13.3,23.1L600.9,302.5z M600.9,697.6
		l22.7-13.3l13.3,23.1l-22.7,13.3L600.9,697.6z M686,621.9l13.3-23.1l23.1,13.3l-13.3,23.1L686,621.9z M686.8,378.5l22.7-13.3
		l13.3,23.1l-22.7,13.3L686.8,378.5z M722.4,513.8v-26.7h26.7v26.7H722.4z"/>
</g>
</svg>
