<?xml version="1.0" encoding="utf-8"?>
<!-- Generator: Adobe Illustrator 25.0.1, SVG Export Plug-In . SVG Version: 6.00 Build 0)  -->
<svg version="1.1" xmlns="http://www.w3.org/2000/svg" xmlns:xlink="http://www.w3.org/1999/xlink" x="0px" y="0px"
	 viewBox="0 0 1000 1000" style="enable-background:new 0 0 1000 1000;" xml:space="preserve">
<style type="text/css">
	.st0{fill:#193E7F;}
	.st1{fill:none;stroke:#FFFFFF;stroke-width:20;stroke-miterlimit:10;}
	.st2{fill:#FFFFFF;}
</style>
<g id="Layer_1">
	<circle class="st0" cx="499.5" cy="500.5" r="491"/>
	<circle class="st1" cx="499.5" cy="500.5" r="431.5"/>
</g>
<g id="Layer_2">
	<g>
		<path class="st2" d="M500.1,315.8c-30.3,27.9-99.6,77.9-209,80.8c2.8,126.6,59,216.9,106.4,270.8C442,718,487,746.8,500.6,754.9
			c13.7-6.3,58.3-28.9,102.3-75.9c47.3-50.5,103.5-140.2,106-282.4c-48.5-1.4-95.6-13.3-140.1-35.4
			C539.3,346.5,515.2,329.2,500.1,315.8z"/>
		<path class="st2" d="M500,230c-25.5,25.5-121,111-287,111c0,343,287,497.1,287,497.1S787,726,787,341C633,341,527.5,257.5,500,230
			z M694,573.8c-18.6,44.8-44.6,85-77.2,119.6c-55.7,59.1-110.8,81-113.1,81.9l-4.3,1.7l-4.1-2.2c-2.3-1.2-57-31-112.3-93.7
			c-32.5-36.9-58.4-77.5-77-120.8c-23.2-54.1-35-112.6-35-173.6v-10h10c117.5,0,187.3-57.2,211.9-81.8l7.1-7.1l7.1,7.1
			c4.4,4.4,28.5,27.4,70.7,48.3c44.8,22.2,92.3,33.4,141.3,33.4h10v10C729,455.1,717.2,518,694,573.8z"/>
	</g>
</g>
</svg>
